<?xml version="1.0" standalone="no"?>
<!DOCTYPE svg PUBLIC "-//W3C//DTD SVG 20010904//EN"
 "http://www.w3.org/TR/2001/REC-SVG-20010904/DTD/svg10.dtd">
<svg version="1.0" xmlns="http://www.w3.org/2000/svg"
 width="192.000000pt" height="192.000000pt" viewBox="0 0 192.000000 192.000000"
 preserveAspectRatio="xMidYMid meet">

<g transform="translate(0.000000,192.000000) scale(0.100000,-0.100000)"
fill="#000000" stroke="none">
<path d="M1270 1341 c0 -6 41 -82 90 -170 50 -87 90 -162 90 -165 0 -3 -283
-6 -630 -6 l-630 0 0 -30 0 -30 630 0 c366 0 630 -4 630 -9 0 -5 -40 -80 -90
-166 -84 -147 -98 -175 -85 -175 5 0 404 329 444 365 11 11 -25 45 -199 191
-239 201 -250 210 -250 195z"/>
</g>
</svg>
